<?xml version="1.0" standalone="no"?>
<!DOCTYPE svg PUBLIC "-//W3C//DTD SVG 20010904//EN"
 "http://www.w3.org/TR/2001/REC-SVG-20010904/DTD/svg10.dtd">
<svg version="1.0" xmlns="http://www.w3.org/2000/svg"
 width="512.000000pt" height="512.000000pt" viewBox="0 0 512.000000 512.000000"
 preserveAspectRatio="xMidYMid meet">
<metadata>
Created by potrace 1.11, written by Peter Selinger 2001-2013
</metadata>
<g transform="translate(0.000000,512.000000) scale(0.100000,-0.100000)"
fill="#000000" stroke="none">
<path d="M349 4763 c-12 -13 -14 -364 -14 -2199 l0 -2184 27 -27 27 -26 533
14 c369 9 1032 14 2153 14 1277 0 1625 3 1642 13 41 23 57 69 56 157 -3 148
-21 2149 -28 3208 l-8 1047 -2187 0 c-2023 0 -2189 -1 -2201 -17z m3618 -60
l682 -6 5 -51 c27 -260 51 -2277 40 -3341 l-9 -860 -155 -8 c-115 -6 -2562
-18 -3950 -19 -82 0 -150 24 -169 61 -13 23 -19 3731 -7 4018 l8 203 237 3
c533 6 2683 7 3318 0z"/>
<path d="M2455 4639 c-275 -4 -828 -7 -1230 -6 -401 1 -735 -2 -742 -6 -6 -4
-14 -35 -18 -70 -8 -74 13 -3927 21 -4008 l6 -56 732 -7 c677 -6 2213 4 3044
20 l352 7 0 701 c0 937 -19 3398 -26 3405 -18 18 -1458 32 -2139 20z m1396
-99 c11 -6 19 -21 19 -35 0 -21 -5 -25 -31 -25 -28 0 -31 3 -25 23 3 12 6 28
6 35 0 15 6 15 31 2z m-1266 -14 c34 -15 35 -16 35 -74 l0 -60 -71 -16 c-39
-9 -76 -16 -81 -16 -6 0 -9 26 -6 66 4 58 8 70 32 90 32 28 44 29 91 10z m271
-92 c18 -5 51 -51 42 -59 -10 -9 -68 -15 -68 -7 0 5 -3 24 -6 41 -7 32 -4 35
32 25z m-1177 -44 c162 -5 296 -12 299 -15 9 -8 -41 -56 -78 -75 -19 -9 -90
-30 -157 -45 -196 -45 -244 -82 -263 -202 -17 -114 -42 -672 -42 -943 1 -252
21 -572 37 -589 9 -8 2004 -1 2085 7 55 6 66 11 77 32 16 32 18 863 3 1175
-12 232 -23 290 -75 371 -56 87 -121 125 -280 165 -95 24 -146 58 -160 108 -7
23 -6 24 41 18 221 -27 390 -31 688 -13 283 18 626 19 642 4 12 -13 -36 -66
-78 -86 -24 -11 -81 -27 -128 -37 -163 -32 -198 -64 -238 -220 -32 -121 -42
-223 -41 -405 1 -91 -4 -444 -11 -785 -6 -341 -9 -753 -6 -915 11 -493 26
-853 38 -900 17 -62 86 -130 164 -159 32 -13 100 -32 149 -42 165 -36 182 -48
125 -90 -33 -25 -83 -26 -334 -5 -197 16 -222 16 -435 0 -205 -15 -504 -14
-520 1 -8 9 43 56 79 75 19 10 80 35 135 55 116 44 172 78 197 122 42 72 57
271 60 840 2 441 1 474 -15 490 -17 17 -75 18 -1015 19 -574 0 -1030 -3 -1075
-9 -63 -8 -81 -14 -90 -31 -10 -16 -11 -139 -6 -551 8 -688 18 -758 115 -812
21 -12 73 -30 114 -39 196 -44 233 -56 275 -95 22 -21 38 -40 35 -43 -17 -16
-355 -17 -600 -2 -245 16 -283 16 -503 2 -250 -17 -266 -15 -288 26 -14 27 -8
30 100 58 287 73 346 115 370 270 39 241 56 1070 42 2061 -10 735 -12 779 -31
841 -46 151 -183 263 -405 334 l-70 22 60 3 c33 1 184 5 335 8 151 4 300 8
330 9 30 1 187 -3 349 -8z m583 -5 c2 -3 3 -18 0 -35 -4 -27 -8 -30 -38 -30
-32 0 -34 2 -34 35 0 33 2 35 33 35 19 0 36 -2 39 -5z m351 -75 c34 -29 57
-84 57 -134 0 -32 1 -32 79 -2 l62 25 11 -27 c14 -35 22 -142 14 -187 -4 -21
-23 -52 -46 -76 -36 -38 -42 -41 -82 -36 -24 3 -74 13 -113 23 -65 18 -70 21
-73 49 -6 52 -19 49 -48 -14 -20 -41 -36 -63 -52 -67 -104 -29 -227 119 -208
250 7 47 38 104 62 113 8 3 28 -3 43 -15 l27 -20 86 63 c47 35 89 68 92 74 13
20 55 11 89 -19z m-550 -88 c31 -21 69 -70 98 -124 24 -47 24 -46 -5 -41 -21
4 -23 2 -19 -21 3 -14 1 -26 -4 -26 -5 0 -38 28 -73 63 -57 56 -99 121 -100
155 0 19 71 15 103 -6z m-1197 -125 c-12 -111 -17 -129 -32 -116 -24 20 -36
77 -29 144 l7 64 30 -15 c30 -16 30 -16 24 -77z m2234 63 c0 -42 -81 -149
-132 -176 -33 -17 -35 -10 -8 31 31 47 24 49 -35 5 -30 -22 -57 -40 -60 -40
-10 0 23 69 50 105 43 55 185 113 185 75z m1230 -62 c0 -104 -18 -138 -39 -77
-15 45 -14 91 5 117 25 36 34 26 34 -40z m-917 -42 c20 -16 22 -55 4 -81 -17
-22 -22 -14 -31 48 -8 49 -3 55 27 33z m-2601 -114 c22 -37 20 -47 -10 -38
-38 13 -72 57 -72 94 l0 36 31 -30 c17 -16 40 -44 51 -62z m3462 46 c3 -13 6
-50 6 -82 0 -59 0 -59 -20 -41 -29 26 -57 74 -65 113 -7 32 -6 32 33 32 33 0
41 -4 46 -22z m135 -44 c-12 -23 -95 -71 -105 -61 -12 11 29 69 69 98 42 30
42 30 45 8 2 -12 -2 -33 -9 -45z m-3469 37 c0 -9 -79 -66 -84 -60 -1 2 1 19 6
37 8 28 13 32 43 32 19 0 35 -4 35 -9z m1223 -27 c21 -8 50 -23 64 -34 27 -21
73 -79 73 -91 0 -15 -74 -41 -150 -53 -44 -7 -83 -15 -86 -19 -3 -3 17 -20 45
-37 28 -18 51 -34 51 -36 0 -21 -34 -75 -63 -101 -47 -42 -122 -63 -217 -63
-67 0 -170 13 -208 25 -18 7 8 54 51 92 32 28 34 34 30 76 -8 72 4 114 48 162
86 93 230 125 362 79z m1059 -33 c99 -26 178 -65 178 -90 0 -16 -30 -124 -47
-167 -3 -8 16 -23 54 -42 32 -17 66 -39 76 -50 17 -19 17 -20 -5 -25 -13 -3
-61 -11 -108 -17 -150 -20 -275 16 -332 94 -40 56 -37 73 14 81 l43 8 -53 23
c-29 13 -79 39 -111 59 -41 26 -71 36 -104 38 -26 1 -47 4 -47 7 0 13 79 57
139 77 85 29 199 30 303 4z m1224 -137 c-7 -60 -26 -105 -59 -141 -26 -29 -31
-29 -45 2 -17 37 -15 82 5 112 15 23 88 83 101 83 3 0 2 -25 -2 -56z m-1689
-19 c143 -47 190 -78 251 -169 37 -56 54 -94 71 -162 29 -121 73 -209 114
-231 49 -26 170 -23 224 5 39 21 72 57 86 95 8 21 17 21 43 3 15 -12 19 -26
18 -73 -1 -165 -179 -285 -310 -208 l-42 25 -14 -63 -14 -62 -43 3 c-68 4
-152 42 -177 79 -18 27 -22 51 -27 150 -6 132 -12 155 -105 358 -32 72 -64
144 -72 160 l-13 30 -15 -46 c-13 -43 -13 -49 6 -90 12 -24 48 -86 82 -138 80
-125 86 -148 70 -288 -7 -61 -17 -117 -21 -124 -5 -9 -23 2 -61 36 l-53 48 -6
-59 c-11 -101 -41 -154 -89 -154 -30 0 -54 -23 -95 -90 -15 -25 -37 -55 -48
-67 l-20 -22 -28 20 c-43 30 -145 162 -164 212 -11 30 -16 65 -13 105 l3 59
-38 -43 c-21 -24 -43 -44 -47 -44 -14 0 -31 76 -24 107 3 15 -12 -8 -34 -52
-52 -104 -99 -157 -168 -191 -47 -23 -57 -25 -65 -13 -10 14 -5 69 8 106 4 14
-1 11 -23 -9 -38 -35 -74 -48 -132 -48 -120 1 -228 116 -208 222 15 80 53 85
86 12 21 -49 63 -74 123 -74 44 0 149 53 181 90 13 16 59 112 102 214 43 102
93 205 111 230 52 72 124 123 191 135 97 19 146 29 164 36 16 6 16 3 -2 -38
-30 -68 -35 -125 -16 -209 16 -70 45 -140 45 -108 0 8 -4 59 -9 114 -7 68 -6
112 1 142 12 47 72 125 92 119 7 -2 62 -20 124 -40z m-2009 21 c15 -8 42 -30
60 -49 l33 -34 -25 -16 c-21 -14 -24 -22 -19 -59 l6 -43 -33 30 c-39 37 -65
86 -75 143 -8 48 4 54 53 28z m223 -89 c-21 -43 -74 -87 -104 -87 -13 0 -17 9
-17 33 0 43 20 70 83 112 l52 35 3 -25 c2 -14 -6 -45 -17 -68z m3262 58 l37
-6 0 -81 c0 -80 0 -80 -22 -66 -24 16 -72 99 -82 141 -6 24 -4 28 11 24 10 -3
35 -8 56 -12z m-3384 -230 c-2 -83 -17 -92 -18 -10 0 55 2 75 9 65 5 -8 9 -33
9 -55z m169 -69 c-7 -78 -39 -142 -87 -170 l-33 -19 3 46 c4 43 2 47 -18 47
-13 0 -23 6 -23 13 0 26 53 95 93 121 64 41 71 37 65 -38z m3456 42 c-25 -81
-51 -136 -82 -170 -31 -34 -37 -37 -45 -23 -5 9 -7 50 -5 90 4 94 28 125 95
125 41 0 44 -2 37 -22z m-2424 8 c0 -2 -25 -21 -55 -41 -30 -21 -55 -42 -55
-46 0 -4 11 -10 25 -13 35 -9 31 -21 -12 -39 -43 -17 -152 -41 -159 -35 -10
11 53 87 95 116 59 41 161 77 161 58z m1156 -38 c31 -37 63 -104 64 -131 0
-24 -32 -15 -79 22 -41 32 -93 97 -71 89 58 -21 62 -21 55 4 -4 12 -10 29 -12
36 -9 23 15 12 43 -20z m977 8 c18 -7 47 -28 64 -46 49 -51 72 -138 26 -98
-37 31 -39 29 -35 -34 4 -58 4 -60 -16 -49 -56 30 -117 171 -96 225 7 20 15
20 57 2z m-3448 -25 c47 -22 89 -64 104 -104 17 -43 14 -47 -24 -31 -19 8 -35
12 -35 9 0 -3 12 -24 26 -46 14 -23 23 -43 21 -46 -7 -6 -78 25 -101 45 -30
27 -56 93 -56 145 0 53 5 56 65 28z m135 -315 c0 -51 -14 -78 -23 -44 -4 12
-7 46 -7 73 1 46 2 48 15 31 8 -11 15 -38 15 -60z m3620 10 c0 -25 -42 -151
-60 -181 -19 -30 -80 -74 -80 -57 0 5 5 23 11 41 13 38 8 47 -20 31 -19 -10
-21 -8 -21 15 0 31 30 93 56 117 46 41 114 62 114 34z m-3470 -32 c0 -49 -25
-164 -42 -195 -11 -20 -33 -44 -50 -53 l-30 -18 7 48 c4 27 9 57 12 67 6 21
-1 21 -32 1 l-25 -16 0 38 c0 53 29 97 81 122 52 26 79 28 79 6z m3158 -18
c57 -29 86 -59 107 -109 l16 -38 -30 16 c-42 21 -44 20 -36 -25 8 -46 -2 -51
-51 -21 -39 23 -66 81 -72 149 -5 61 -1 62 66 28z m-3473 -6 c49 -23 63 -35
98 -81 33 -44 33 -49 2 -49 -31 0 -31 -1 2 -57 l27 -46 -38 6 c-118 19 -213
113 -215 215 -1 31 0 32 42 32 23 0 60 -9 82 -20z m1005 -220 c0 -34 -44 -70
-85 -70 -19 0 -35 2 -35 5 0 6 104 85 113 85 4 0 7 -9 7 -20z m2601 -22 c19
-73 -7 -238 -38 -238 -14 0 -15 14 -10 118 8 166 24 206 48 120z m-1316 -23
c17 -44 17 -45 -9 -99 -41 -83 -133 -127 -196 -94 -30 16 -70 74 -70 100 0 19
1 19 36 -2 81 -51 190 6 201 104 6 54 15 52 38 -9z m-720 -91 c-10 -36 -30
-70 -53 -95 -32 -34 -46 -41 -100 -50 -48 -7 -69 -7 -90 3 -34 17 -72 83 -72
128 l0 35 26 -37 c34 -48 84 -72 132 -63 72 13 122 70 153 175 l14 45 3 -43
c2 -23 -4 -68 -13 -98z m-1377 -14 c3 -61 0 -95 -11 -120 l-15 -35 -13 30
c-14 32 -18 218 -5 252 15 36 39 -37 44 -127z m2672 82 c0 -24 -5 -29 -42 -40
-28 -7 -68 -33 -113 -72 -76 -67 -134 -104 -177 -114 -38 -9 -36 8 10 68 50
67 117 113 221 153 47 18 89 32 94 33 4 0 7 -13 7 -28z m584 -6 c18 -7 42 -26
54 -41 43 -55 25 -55 -85 -3 -65 30 -76 43 -45 51 31 8 42 7 76 -7z m-2476
-48 c71 -26 132 -75 161 -127 13 -23 21 -44 18 -47 -12 -12 -88 21 -134 57
-45 36 -110 72 -175 98 -22 8 -28 17 -28 40 l0 30 53 -16 c28 -8 76 -24 105
-35z m-613 32 c4 -6 1 -18 -7 -27 -19 -24 -100 -73 -109 -67 -17 10 -9 43 17
73 19 23 34 31 59 31 19 0 37 -5 40 -10z m3461 -2 c-30 -73 -38 -128 -32 -213
3 -49 9 -101 12 -114 11 -40 -13 -15 -43 42 -27 54 -41 153 -29 203 4 15 23
43 42 61 36 33 60 43 50 21z m-1905 -164 c-13 -30 -37 -31 -45 -1 -14 51 -6
113 17 137 l22 25 9 -68 c6 -47 5 -76 -3 -93z m-1977 132 c40 -17 66 -51 66
-87 0 -92 -49 -75 -89 31 -30 79 -30 78 23 56z m1769 -18 c24 -17 27 -25 27
-79 l0 -59 -34 0 c-30 0 -34 4 -40 31 -3 17 -6 56 -6 86 0 58 -1 58 53 21z
m807 -58 c-70 -55 -136 -65 -175 -25 -14 13 -25 29 -25 35 0 6 41 10 113 10
l112 0 -25 -20z m266 -56 c-5 -19 -13 -24 -36 -24 -17 0 -30 3 -30 6 0 3 15
26 33 52 l32 47 3 -29 c2 -15 1 -39 -2 -52z m-2706 2 c-52 -85 -86 -168 -112
-274 -19 -75 -22 -115 -23 -292 0 -113 3 -221 7 -240 7 -33 7 -34 -7 -15 -9
11 -28 56 -42 100 -25 73 -27 94 -27 235 0 140 2 162 26 232 35 105 89 198
153 263 29 30 56 55 59 55 2 0 -13 -29 -34 -64z m3650 -91 c57 -133 65 -354
19 -548 -10 -45 -12 -47 -29 -32 -16 14 -16 20 -2 68 25 92 19 251 -17 427
-17 85 -34 166 -37 180 -5 21 -2 19 20 -12 15 -21 35 -58 46 -83z m-143 -97
c26 -13 58 -39 71 -58 21 -32 31 -90 14 -90 -4 0 -26 18 -47 41 -75 77 -161
103 -197 59 -10 -12 -18 -34 -18 -49 l-1 -26 -19 24 c-28 33 -35 68 -19 88 40
48 135 53 216 11z m-3321 -98 c-66 -62 -103 -129 -122 -222 -34 -160 28 -357
143 -456 45 -39 53 -51 53 -80 l0 -35 -47 7 c-25 3 -70 17 -99 30 -52 24 -53
25 -47 60 5 31 1 40 -41 83 l-46 48 0 -49 c0 -43 -2 -47 -16 -35 -29 24 -43
66 -50 148 l-7 81 31 0 31 0 -16 46 c-34 99 11 249 102 339 49 50 114 84 157
85 26 0 24 -2 -26 -50z m1425 -116 c-9 -194 -98 -397 -240 -548 -148 -155
-365 -256 -554 -256 l-79 0 7 48 c4 26 8 47 8 48 1 0 42 6 91 13 333 46 623
324 676 648 7 37 14 78 16 90 4 20 47 45 69 39 6 -2 9 -35 6 -82z m134 -241
l2 -211 -40 -10 -39 -10 6 41 c4 23 9 130 12 237 2 107 7 215 11 240 l6 45 20
-60 c16 -51 20 -93 22 -272z m-561 286 c15 -76 -7 -162 -64 -245 -114 -164
-276 -227 -368 -141 -25 23 -56 76 -49 83 2 2 36 0 75 -6 89 -12 156 0 211 41
42 30 79 86 64 99 -4 4 -41 15 -80 25 -81 19 -93 37 -39 55 19 6 56 28 83 49
62 49 102 70 134 71 22 0 28 -6 33 -31z m703 -61 c50 -350 366 -627 813 -713
l75 -14 -100 4 c-119 5 -215 30 -341 89 -306 145 -481 371 -510 659 l-7 69 29
-4 c27 -3 28 -5 41 -90z m513 82 c4 0 13 -21 19 -47 23 -88 107 -139 190 -114
48 14 79 48 95 102 l13 43 18 -27 c20 -31 15 -63 -18 -116 -11 -19 -22 -48
-24 -64 -4 -40 -18 -55 -61 -66 -42 -12 -111 1 -161 30 l-33 20 19 -32 c10
-18 52 -60 93 -94 41 -34 83 -76 94 -94 l19 -33 -41 7 c-33 5 -42 4 -42 -7 0
-31 -31 -117 -52 -144 l-23 -29 -5 80 c-5 75 -11 90 -85 239 -68 136 -80 169
-83 221 -5 73 18 141 44 131 8 -3 19 -6 24 -6z m-151 -51 c41 -73 14 -178 -59
-226 -18 -13 -44 -23 -57 -23 -59 0 -141 67 -183 150 -28 54 -25 59 13 22 42
-40 95 -62 152 -62 38 0 52 5 77 30 28 28 30 35 26 90 -1 33 0 60 3 60 3 0 16
-18 28 -41z m1287 -62 c60 -88 67 -218 18 -343 -13 -33 -24 -70 -24 -82 0 -39
40 -27 91 28 26 28 51 50 56 50 12 0 88 -80 102 -107 12 -24 15 -83 4 -83 -4
0 -19 12 -34 26 l-28 27 -61 -47 c-69 -52 -114 -60 -145 -27 -17 20 -18 19
-69 -19 -52 -39 -144 -86 -152 -77 -7 6 23 37 93 96 59 49 62 54 48 74 -29 47
-27 87 15 251 44 173 48 218 25 273 l-15 35 23 -14 c12 -8 36 -35 53 -61z
m-3276 -11 c0 -8 -20 -38 -43 -68 -55 -67 -67 -90 -67 -125 0 -43 11 -51 65
-55 l50 -3 -34 -18 c-43 -24 -76 -15 -101 26 -56 91 15 253 113 256 9 1 17 -5
17 -13z m1154 -221 c-36 -77 -155 -155 -236 -155 -83 0 -115 50 -89 140 l7 25
17 -32 c9 -17 27 -39 39 -47 28 -20 98 -21 141 -3 33 14 126 102 128 121 0 7
3 6 5 -1 3 -7 -2 -28 -12 -48z m2381 25 c-10 -16 -95 -63 -102 -56 -13 13 50
66 79 66 17 0 27 -4 23 -10z m-1065 -7 c-1 -18 -18 -33 -53 -48 -44 -18 -47
-18 -47 -3 0 23 43 58 72 58 15 0 28 -3 28 -7z m-784 -215 c48 -68 108 -146
135 -174 57 -62 68 -93 46 -140 -20 -42 -60 -68 -103 -68 -59 0 -63 19 -16 60
33 28 42 42 42 67 -1 46 -28 100 -101 197 -35 47 -71 101 -81 120 -17 33 -23
60 -13 60 2 0 43 -55 91 -122z m-1077 11 c36 -13 35 -10 19 -44 -12 -27 -18
-28 -67 -19 -32 7 -38 22 -21 55 12 22 24 23 69 8z m1213 -65 c71 -54 127
-110 128 -128 0 -10 -42 16 -96 62 -41 34 -120 122 -110 122 3 0 38 -25 78
-56z m691 24 c22 -26 21 -36 -3 -75 -27 -44 -106 -83 -167 -82 -42 0 -45 2
-23 10 140 57 158 81 124 163 -6 17 -4 18 22 12 16 -4 37 -16 47 -28z m-942
-38 c10 -14 28 -61 40 -105 74 -276 83 -292 173 -302 25 -3 46 -9 46 -14 0
-17 -54 -49 -82 -49 -38 0 -94 26 -114 54 -11 14 -18 17 -21 9 -2 -7 -12 -22
-22 -34 l-18 -22 -17 42 c-9 24 -19 70 -23 103 l-6 61 -43 -49 -42 -49 -7 28
c-11 43 5 139 31 185 0 1 32 -5 69 -13 37 -9 69 -14 71 -12 4 4 -180 117 -189
117 -2 0 -7 -37 -10 -83 -11 -144 -53 -243 -116 -280 l-31 -18 0 30 c0 17 -2
31 -4 31 -2 0 -25 -9 -51 -21 -45 -20 -107 -20 -119 -1 -3 5 16 24 42 42 40
30 57 56 122 182 74 144 105 189 144 210 17 9 18 7 14 -26 l-4 -36 43 0 43 0
0 41 0 41 31 -19 c18 -10 40 -29 50 -43z m-749 20 c53 0 40 -16 -28 -36 -50
-14 -57 -14 -79 0 -14 9 -25 24 -25 33 0 13 8 15 46 9 26 -3 64 -6 86 -6z
m-1163 -39 c20 -11 75 -42 122 -70 46 -28 113 -61 148 -72 60 -20 63 -23 45
-36 -33 -24 -65 -27 -164 -15 -145 18 -216 16 -256 -9 l-34 -21 0 54 c0 51 1
54 39 78 39 24 51 43 51 88 0 27 1 27 49 3z m1029 -34 c17 -36 10 -43 -50 -49
-41 -5 -47 -3 -52 16 -3 11 2 31 10 44 22 34 74 27 92 -11z m1471 -189 c69
-41 122 -90 152 -141 29 -51 30 -54 24 -146 -7 -103 -14 -125 -62 -192 -60
-84 -165 -136 -251 -124 -96 14 -184 149 -160 244 18 69 73 119 196 178 2 0
-8 24 -22 52 -26 50 -26 51 -6 51 31 0 70 -44 70 -79 0 -49 -17 -79 -61 -108
-74 -50 -89 -68 -89 -112 0 -74 82 -143 172 -144 58 -1 80 17 127 107 76 144
14 297 -176 433 -35 25 -63 47 -63 49 0 6 108 -43 149 -68z m-1155 20 c-5 -7
-22 -32 -40 -55 -18 -23 -40 -63 -50 -89 l-18 -47 -18 23 c-10 12 -18 30 -18
39 0 30 40 81 87 111 50 32 69 38 57 18z m2325 -34 c134 -39 205 -207 120
-279 -33 -27 -76 -38 -134 -33 -39 3 -40 4 -57 62 -10 33 -16 61 -14 63 2 2
21 -20 42 -49 21 -29 39 -55 41 -57 7 -11 67 26 99 61 42 47 41 78 -2 135 -42
56 -93 74 -234 86 -82 7 -116 13 -100 18 47 13 185 9 239 -7z m-2657 -111
c-58 -74 -107 -159 -134 -233 l-27 -75 0 55 c-1 73 12 114 55 177 34 49 106
113 127 113 5 0 -5 -17 -21 -37z m1858 27 c20 -11 20 -36 -2 -107 -9 -30 -13
-33 -51 -33 l-42 0 25 20 c14 11 29 20 34 20 5 0 6 25 2 55 -6 58 -2 64 34 45z
m-2789 -12 c29 -8 45 -8 64 0 29 14 30 11 10 -29 -19 -35 -13 -49 20 -49 70 0
76 -109 12 -203 -19 -28 -92 -87 -108 -87 -4 0 -9 18 -11 39 l-3 39 -88 -40
c-49 -22 -91 -38 -93 -35 -7 6 16 94 37 145 l18 42 -26 0 c-23 0 -25 3 -19 33
8 42 53 106 95 134 39 27 41 27 92 11z m1738 -67 c14 -9 9 -82 -8 -109 -12
-20 -115 8 -119 32 -10 52 80 107 127 77z m910 -128 c1 -71 1 -71 42 -104 32
-25 38 -34 26 -40 -8 -5 -28 -4 -45 2 -56 19 -76 104 -50 207 15 61 26 34 27
-65z m-1057 38 c4 -4 -3 -19 -15 -35 l-22 -28 -33 19 c-35 20 -37 28 -22 68
l10 27 38 -23 c20 -12 40 -25 44 -28z m-335 28 c97 -25 170 -144 160 -261 -9
-103 -68 -202 -147 -247 l-42 -24 47 59 c55 67 95 146 95 187 0 70 -75 170
-142 188 -41 11 -148 0 -203 -21 -37 -14 -37 -13 -21 18 22 43 61 73 118 93
63 22 75 22 135 8z m615 -37 c5 -5 6 -21 2 -36 -5 -22 -11 -26 -45 -26 l-39 0
0 41 0 42 37 -6 c20 -4 40 -10 45 -15z m1469 -69 c22 -69 105 -113 243 -128
68 -8 60 -21 -20 -31 -136 -17 -246 71 -243 193 1 26 4 37 6 23 2 -14 9 -39
14 -57z m-1657 -5 c8 -32 8 -35 -10 -52 -30 -30 -84 -9 -84 33 0 12 12 22 33
29 48 15 54 14 61 -10z m137 -35 c16 -3 29 -7 29 -9 0 -6 -74 -73 -81 -74 -4
0 -10 16 -13 36 -4 19 -10 43 -13 51 -5 13 -1 15 22 9 15 -4 40 -10 56 -13z
m199 -83 c0 -38 -2 -40 -30 -40 -28 0 -30 2 -30 40 0 38 2 40 30 40 28 0 30
-2 30 -40z m-285 -27 c-9 -40 -19 -47 -52 -36 -20 7 -29 17 -31 36 -3 26 -1
27 43 27 46 0 47 0 40 -27z m407 -93 c-45 -10 -90 -55 -102 -102 -20 -71 21
-124 108 -143 27 -5 31 -9 21 -21 -14 -17 -75 -18 -109 -1 -13 7 -35 28 -47
46 -63 93 11 233 121 230 l41 -1 -33 -8z m-527 -164 c60 -80 132 -106 199 -71
41 21 44 11 8 -25 -26 -26 -38 -30 -82 -30 -57 0 -81 10 -123 49 -39 36 -57
73 -56 118 0 33 2 36 12 19 7 -10 26 -37 42 -60z m-755 24 c58 -58 -24 -194
-97 -161 l-25 12 41 29 c39 29 41 32 41 85 0 59 9 66 40 35z m560 0 c20 -20
27 -50 12 -50 -11 0 -92 58 -92 65 0 14 63 2 80 -15z m-325 -35 l50 -12 -39
-8 c-45 -9 -139 9 -156 30 -10 12 -4 13 42 8 29 -3 76 -12 103 -18z m2673 -20
c6 -5 -50 -73 -60 -74 -5 -1 -8 20 -8 45 l0 47 32 -7 c17 -3 34 -8 36 -11z
m-438 -12 c0 -36 -13 -63 -29 -63 -32 0 -43 16 -36 49 6 26 11 31 36 31 21 0
29 -5 29 -17z"/>
<path d="M2316 3671 c-19 -7 -19 -8 2 -23 l22 -15 -20 -26 c-11 -14 -20 -27
-20 -30 0 -3 23 -7 50 -9 28 -1 50 0 50 3 0 3 -7 29 -15 57 -16 53 -26 60 -69
43z"/>
<path d="M2298 3470 c-20 -41 -45 -109 -57 -150 -12 -41 -29 -92 -36 -113 -8
-20 -15 -40 -15 -43 0 -14 168 247 174 270 4 17 0 42 -12 69 l-19 42 -35 -75z"/>
<path d="M2830 3326 c0 -19 -21 -21 -38 -4 -19 19 -26 -16 -12 -58 11 -34 74
-114 89 -114 3 0 4 42 1 92 -4 78 -8 93 -22 96 -11 2 -18 -3 -18 -12z"/>
</g>
</svg>
